<svg width="18" height="18" viewBox="0 0 250 250" fill="none" xmlns="http://www.w3.org/2000/svg">
<path d="M9 16.5C13.1421 16.5 16.5 13.1421 16.5 9C16.5 4.85786 13.1421 1.5 9 1.5C4.85786 1.5 1.5 4.85786 1.5 9C1.5 13.1421 4.85786 16.5 9 16.5Z" stroke="white" stroke-width="2" stroke-linecap="round" stroke-linejoin="round"/>
<path d="M6.81738 6.74994C6.99371 6.24869 7.34175 5.82602 7.79985 5.55679C8.25795 5.28756 8.79655 5.18914 9.32027 5.27897C9.84398 5.3688 10.319 5.64108 10.6612 6.04758C11.0034 6.45409 11.1907 6.96858 11.1899 7.49994C11.1899 8.99994 8.93988 9.74994 8.93988 9.74994" stroke="white" stroke-width="2" stroke-linecap="round" stroke-linejoin="round"/>
<path d="M9 12.75H9.00833" stroke="white" stroke-width="2" stroke-linecap="round" stroke-linejoin="round"/>
</svg>
