<svg width="24" height="24" viewBox="0 0 250 250" fill="none" xmlns="http://www.w3.org/2000/svg">
<g clip-path="url(#clip0)">
<path d="M22.9999 8.696C22.4469 8.696 21.9999 8.248 21.9999 7.696V2.956C21.9999 2.429 21.5709 2 21.0449 2H16.3049C15.7519 2 15.3049 1.552 15.3049 1C15.3049 0.448 15.7519 0 16.3049 0H21.0449C22.6749 0 23.9999 1.326 23.9999 2.956V7.696C23.9999 8.248 23.5529 8.696 22.9999 8.696Z" fill="#083A9B"/>
<path d="M1 8.696C0.447 8.696 0 8.248 0 7.696V2.956C0 1.326 1.325 0 2.955 0H7.695C8.248 0 8.695 0.448 8.695 1C8.695 1.552 8.248 2 7.695 2H2.955C2.429 2 2 2.429 2 2.956V7.696C2 8.248 1.553 8.696 1 8.696Z" fill="#083A9B"/>
<path d="M21.0449 24.0002H16.3049C15.7519 24.0002 15.3049 23.5522 15.3049 23.0002C15.3049 22.4482 15.7519 22.0002 16.3049 22.0002H21.0449C21.5709 22.0002 21.9999 21.5712 21.9999 21.0442V16.3042C21.9999 15.7522 22.4469 15.3042 22.9999 15.3042C23.5529 15.3042 23.9999 15.7522 23.9999 16.3042V21.0442C23.9999 22.6742 22.6749 24.0002 21.0449 24.0002Z" fill="#083A9B"/>
<path d="M7.695 24.0002H2.955C1.325 24.0002 0 22.6742 0 21.0442V16.3042C0 15.7522 0.447 15.3042 1 15.3042C1.553 15.3042 2 15.7522 2 16.3042V21.0442C2 21.5712 2.429 22.0002 2.955 22.0002H7.695C8.248 22.0002 8.695 22.4482 8.695 23.0002C8.695 23.5522 8.248 24.0002 7.695 24.0002Z" fill="#083A9B"/>
<line x1="1" y1="12" x2="23" y2="12" stroke="#083A9B" stroke-width="2" stroke-linecap="round" stroke-linejoin="round"/>
</g>
<defs>
<clipPath id="clip0">
<path d="M0 0H24V24H0V0Z" fill="white"/>
</clipPath>
</defs>
</svg>
