<svg fill="#083A9B" version="1.1" id="Layer_1" xmlns="http://www.w3.org/2000/svg" xmlns:xlink="http://www.w3.org/1999/xlink" x="0px" y="0px"
	 width="24px" height="26px" viewBox="0 0 24 26" enable-background="new 0 0 24 26" xml:space="preserve">
<path d="M21,20H3c-0.44,0-0.83-0.288-0.957-0.71c-0.128-0.422,0.036-0.878,0.402-1.122C2.458,18.158,5,16.27,5,10
	c0-1.869,0.728-3.627,2.05-4.95C8.373,3.728,10.131,3,12,3s3.627,0.728,4.949,2.05C18.271,6.373,19,8.131,19,10
	c0,6.27,2.542,8.158,2.567,8.177c0.354,0.253,0.511,0.71,0.378,1.124S21.435,20,21,20z M5.14,18h13.719
	C17.955,16.518,17,14.004,17,10c0-1.335-0.521-2.59-1.465-3.536C14.591,5.52,13.335,5,12,5S9.409,5.52,8.464,6.464
	C7.52,7.409,7,8.665,7,10C7,14.004,6.045,16.518,5.14,18z"/>
<path d="M12,24.996c-0.525,0-1.043-0.139-1.498-0.4c-0.454-0.261-0.833-0.64-1.097-1.094
	c-0.277-0.478-0.115-1.09,0.363-1.367c0.476-0.275,1.089-0.114,1.367,0.363c0.088,0.151,0.215,0.277,0.366,0.365
	c0.303,0.175,0.697,0.173,0.997,0c0.153-0.088,0.279-0.214,0.367-0.365c0.277-0.478,0.89-0.641,1.367-0.363s0.641,0.89,0.363,1.367
	c-0.264,0.454-0.644,0.832-1.099,1.094C13.044,24.857,12.526,24.996,12,24.996z"/>
<circle fill="#FF0000" cx="17" cy="4" r="4"/>
</svg>
