<svg fill="#083A9B" version="1.1" id="Layer_1" xmlns="http://www.w3.org/2000/svg" xmlns:xlink="http://www.w3.org/1999/xlink" x="0px" y="0px"
	 width="24px" height="24px" viewBox="0 0 24 24" enable-background="new 0 0 24 24" xml:space="preserve">
<path d="M21,22H3c-0.801,0-1.554-0.313-2.121-0.879S0,19.801,0,19V8c0-0.801,0.312-1.554,0.879-2.121S2.199,5,3,5
	h3.465l1.703-2.555C8.354,2.167,8.666,2,9,2h6c0.334,0,0.646,0.167,0.832,0.445L17.535,5H21c0.801,0,1.555,0.312,2.121,0.879
	S24,7.199,24,8v11c0,0.801-0.313,1.555-0.879,2.121S21.801,22,21,22z M3,7C2.737,7,2.479,7.107,2.293,7.293C2.107,7.479,2,7.737,2,8
	v11c0,0.263,0.107,0.521,0.293,0.707C2.479,19.894,2.737,20,3,20h18c0.263,0,0.521-0.106,0.707-0.293S22,19.263,22,19V8
	c0-0.263-0.106-0.521-0.293-0.707C21.521,7.107,21.263,7,21,7h-4c-0.334,0-0.646-0.167-0.832-0.445L14.465,4h-4.93L7.832,6.555
	C7.646,6.833,7.334,7,7,7H3z"/>
<path d="M12,18c-2.757,0-5-2.243-5-5s2.243-5,5-5s5,2.243,5,5S14.757,18,12,18z M12,10c-1.654,0-3,1.346-3,3
	s1.346,3,3,3s3-1.346,3-3S13.654,10,12,10z"/>
</svg>
