<svg fill="#083A9B" version="1.1" id="Layer_1" xmlns="http://www.w3.org/2000/svg" xmlns:xlink="http://www.w3.org/1999/xlink" x="0px" y="0px"
	 width="24px" height="24px" viewBox="0 0 24 24" enable-background="new 0 0 24 24" xml:space="preserve">
<path d="M12.017,21C4.469,21,0.28,12.797,0.105,12.447c-0.145-0.291-0.14-0.634,0.013-0.92
	c1.32-2.46,3.115-4.567,5.334-6.262c0.398-0.304,0.96-0.266,1.314,0.088l3.816,3.816c0.002,0.002,0.005,0.004,0.007,0.007
	l4.234,4.234c0.002,0.002,0.005,0.004,0.007,0.007l3.815,3.815c0.204,0.204,0.31,0.486,0.291,0.773
	c-0.02,0.288-0.162,0.554-0.392,0.729C16.682,20.157,14.362,20.962,12.017,21z M2.144,12.001C3.083,13.613,6.626,19,12,19
	c1.522-0.025,3.042-0.451,4.37-1.216l-2.32-2.32c-0.158,0.1-0.324,0.188-0.497,0.265c-0.494,0.22-1.019,0.336-1.558,0.346
	c-0.537,0.006-1.067-0.088-1.569-0.291c-0.5-0.202-0.947-0.498-1.329-0.879c-0.384-0.384-0.68-0.832-0.881-1.332
	c-0.203-0.502-0.3-1.029-0.291-1.568c0.009-0.539,0.125-1.063,0.346-1.558c0.077-0.172,0.165-0.338,0.264-0.496L5.987,7.401
	C4.443,8.705,3.154,10.248,2.144,12.001z M10.028,11.442c-0.064,0.193-0.099,0.393-0.102,0.597c-0.005,0.27,0.044,0.534,0.145,0.785
	c0.101,0.25,0.249,0.474,0.44,0.666c0.19,0.189,0.415,0.338,0.666,0.439c0.25,0.102,0.503,0.143,0.781,0.145
	c0.206-0.003,0.406-0.038,0.599-0.103L10.028,11.442z M20.84,16.189c-0.265,0-0.52-0.105-0.707-0.293L9.192,4.947
	C8.936,4.69,8.839,4.315,8.938,3.966s0.38-0.617,0.733-0.699C10.434,3.088,11.199,2.97,12.002,3c7.529,0,11.718,8.204,11.893,8.553
	c0.145,0.29,0.141,0.633-0.013,0.919c-0.641,1.197-1.406,2.328-2.277,3.362c-0.181,0.214-0.442,0.343-0.722,0.354
	C20.868,16.189,20.854,16.189,20.84,16.189z M12.073,5l8.68,8.687c0.399-0.54,0.769-1.104,1.104-1.688
	C20.923,10.396,17.407,5.048,12.073,5z"/>
<path d="M23,24c-0.256,0-0.512-0.098-0.707-0.293l-22-22c-0.391-0.391-0.391-1.023,0-1.414s1.023-0.391,1.414,0
	l22,22c0.391,0.391,0.391,1.023,0,1.414C23.512,23.902,23.256,24,23,24z"/>
</svg>
