<svg width="20" height="20" viewBox="0 0 20 20" fill="none" xmlns="http://www.w3.org/2000/svg">
<g clip-path="url(#clip0)">
<path d="M19.2179 16.0939C19.6492 16.0939 19.9991 15.7441 19.9991 15.3126V14.497C19.9991 12.6422 18.4899 11.1332 16.635 11.1332H16.1539C16.2406 10.8886 16.2883 10.6259 16.2883 10.352V7.5006C16.7198 7.5006 17.0696 7.15087 17.0696 6.71935V3.98514C17.0696 3.55363 16.7198 3.2039 16.2883 3.2039H15.4598C15.7196 2.54274 15.678 1.77187 15.2794 1.12078C14.9526 0.586875 14.4373 0.212273 13.8288 0.0657896C13.2201 -0.0803889 12.5908 0.0189454 12.0569 0.345787C11.7775 0.516837 11.3277 0.901204 10.6483 2.25938C10.6469 2.26213 10.6455 2.26488 10.6441 2.26762C10.6428 2.26488 10.6414 2.26213 10.64 2.25938C9.96039 0.901204 9.51041 0.516837 9.23118 0.345787C8.69727 0.0189454 8.068 -0.0803889 7.45933 0.0659422C6.85066 0.212273 6.33553 0.587027 6.00869 1.12078C5.60998 1.77202 5.56847 2.54274 5.82818 3.2039H4.99978C4.56826 3.2039 4.21853 3.55363 4.21853 3.98514V6.71935C4.21853 7.15087 4.56826 7.5006 4.99978 7.5006V10.352C4.99978 10.496 5.01351 10.6369 5.03854 10.7739L3.97424 9.80146C3.52884 9.36964 2.94168 9.13527 2.32157 9.14122C1.69566 9.14701 1.10942 9.39649 0.670882 9.84327C0.232499 10.29 -0.00584212 10.8809 0.000108803 11.5069C0.0060597 12.1328 0.255235 12.7191 0.702162 13.1575C0.707503 13.1628 0.712996 13.168 0.718489 13.1732L4.6972 16.8568C5.73403 17.8591 6.93749 18.6416 8.2743 19.1828C9.61402 19.7251 11.0261 20.0001 12.4712 20.0001H19.2179C19.6492 20.0001 19.9991 19.6504 19.9991 19.2188C19.9991 18.7873 19.6492 18.4376 19.2179 18.4376H12.4712C9.95932 18.4376 7.58217 17.4754 5.77752 15.7281C5.7734 15.7241 5.76912 15.7202 5.76485 15.7162L1.7898 12.0356C1.645 11.8902 1.56443 11.6977 1.56245 11.4921C1.56047 11.2835 1.63996 11.0865 1.78614 10.9376C1.93232 10.7887 2.12763 10.7055 2.33637 10.7036H2.34385C2.54969 10.7036 2.74363 10.7827 2.89087 10.9272C2.89743 10.9337 2.90415 10.9401 2.91101 10.9463L7.42027 15.0666C7.84874 15.5299 8.46107 15.8204 9.14023 15.8204H13.0463C13.4777 15.8204 13.8274 15.4707 13.8274 15.0393C13.8274 14.6078 13.4777 14.2581 13.0463 14.2581H9.14023C8.97895 14.2581 8.82896 14.2089 8.70429 14.1249C8.69971 14.1203 8.69544 14.1154 8.69071 14.111L8.53202 13.9662C8.42399 13.8321 8.35899 13.6619 8.35899 13.4768C8.35899 13.0461 8.70948 12.6956 9.14023 12.6956H16.635C17.6284 12.6956 18.4366 13.5037 18.4366 14.497V15.3126C18.4366 15.7441 18.7863 16.0939 19.2179 16.0939ZM14.7258 10.352C14.7258 10.7827 14.3753 11.1331 13.9446 11.1331H11.4057V7.5006H14.7258V10.352ZM15.5071 5.93811H11.4057V4.76624H15.5071V5.93811ZM12.0426 2.96418C12.5881 1.87242 12.8621 1.6852 12.8727 1.67833C13.0507 1.56938 13.2604 1.53627 13.4633 1.58495C13.6661 1.63378 13.8379 1.75859 13.9469 1.93666C14.0558 2.11458 14.0889 2.32438 14.0403 2.52717C13.9914 2.73011 13.8665 2.90193 13.6895 3.01026C13.6776 3.01698 13.3854 3.17521 12.1637 3.16026C12.091 3.15934 12.0189 3.15782 11.9486 3.15583C11.979 3.09297 12.0102 3.02888 12.0426 2.96418ZM7.34123 1.93666C7.45018 1.75859 7.62184 1.63378 7.82478 1.58495C7.88597 1.5703 7.94761 1.56297 8.0091 1.56297C8.15116 1.56297 8.29078 1.60204 8.41453 1.67772C8.42597 1.6852 8.70002 1.87242 9.24552 2.96418C9.27787 3.02888 9.30915 3.09297 9.33951 3.15583C9.26902 3.15782 9.19715 3.15934 9.12436 3.16026C7.90245 3.17552 7.61055 3.01698 7.59956 3.01087C7.42164 2.90193 7.29668 2.73011 7.24785 2.52717C7.19902 2.32438 7.23228 2.11458 7.34123 1.93666ZM5.78103 4.76624H9.84336V5.93811H5.78103V4.76624ZM9.84336 7.5006V11.1331H7.34337C6.91261 11.1331 6.56227 10.7827 6.56227 10.352V7.5006H9.84336Z" fill="white"/>
</g>
<defs>
<clipPath id="clip0">
<rect width="20" height="20" fill="white"/>
</clipPath>
</defs>
</svg>
