<svg fill="#FFFFFF" version="1.1" id="Layer_1" xmlns="http://www.w3.org/2000/svg" xmlns:xlink="http://www.w3.org/1999/xlink" x="0px" y="0px"
	 width="18px" height="18px" viewBox="0 0 18 18" enable-background="new 0 0 18 18" xml:space="preserve">
<path d="M6.75,16.75h-3c-0.667,0-1.295-0.26-1.768-0.732s-0.732-1.1-0.732-1.768V3.75
	c0-0.667,0.26-1.295,0.732-1.768S3.083,1.25,3.75,1.25h3c0.552,0,1,0.448,1,1s-0.448,1-1,1h-3c-0.133,0-0.259,0.052-0.354,0.146
	C3.302,3.491,3.25,3.617,3.25,3.75v10.5c0,0.134,0.052,0.259,0.146,0.354c0.095,0.095,0.22,0.146,0.354,0.146h3c0.552,0,1,0.447,1,1
	S7.302,16.75,6.75,16.75z"/>
<path d="M12,13.75c-0.256,0-0.512-0.098-0.707-0.293c-0.391-0.391-0.391-1.023,0-1.414L14.336,9l-3.043-3.043
	c-0.391-0.391-0.391-1.023,0-1.414s1.023-0.391,1.414,0l3.75,3.75c0.391,0.391,0.391,1.023,0,1.414l-3.75,3.75
	C12.512,13.652,12.256,13.75,12,13.75z"/>
<path d="M15.75,10h-9c-0.552,0-1-0.447-1-1c0-0.552,0.448-1,1-1h9c0.553,0,1,0.448,1,1
	C16.75,9.553,16.303,10,15.75,10z"/>
</svg>
