<svg width="24" height="26" viewBox="0 0 24 26" fill="none" xmlns="http://www.w3.org/2000/svg">
<path d="M18 10C18 8.4087 17.3679 6.88258 16.2426 5.75736C15.1174 4.63214 13.5913 4 12 4C10.4087 4 8.88258 4.63214 7.75736 5.75736C6.63214 6.88258 6 8.4087 6 10C6 17 3 19 3 19H21C21 19 18 17 18 10Z" stroke="#083A9B" stroke-width="2" stroke-linecap="round" stroke-linejoin="round"/>
<path d="M13.73 23C13.5542 23.3031 13.3019 23.5547 12.9982 23.7295C12.6946 23.9044 12.3504 23.9965 12 23.9965C11.6496 23.9965 11.3054 23.9044 11.0018 23.7295C10.6982 23.5547 10.4458 23.3031 10.27 23" stroke="#083A9B" stroke-width="2" stroke-linecap="round" stroke-linejoin="round"/>
</svg>
