<svg fill="#FFFFFF" version="1.1" id="Layer_1" xmlns="http://www.w3.org/2000/svg" xmlns:xlink="http://www.w3.org/1999/xlink" x="0px" y="0px"
	 width="18px" height="18px" viewBox="0 0 18 18" enable-background="new 0 0 18 18" xml:space="preserve">
<path d="M9,17.5c-4.687,0-8.5-3.813-8.5-8.5c0-4.687,3.813-8.5,8.5-8.5c4.687,0,8.5,3.813,8.5,8.5
	C17.5,13.687,13.687,17.5,9,17.5z M9,2.5C5.416,2.5,2.5,5.416,2.5,9s2.916,6.5,6.5,6.5s6.5-2.916,6.5-6.5S12.584,2.5,9,2.5z"/>
<path d="M8.94,10.75c-0.419,0-0.809-0.265-0.949-0.684C7.816,9.542,8.1,8.976,8.624,8.801
	c0.544-0.186,1.566-0.759,1.566-1.301c0.001-0.297-0.103-0.583-0.293-0.807c-0.19-0.227-0.455-0.379-0.745-0.429
	c-0.293-0.05-0.591,0.004-0.845,0.155C8.052,6.568,7.858,6.804,7.761,7.082C7.578,7.603,7.008,7.877,6.486,7.693
	C5.965,7.51,5.691,6.939,5.874,6.418c0.254-0.723,0.758-1.335,1.418-1.724c0.662-0.388,1.443-0.528,2.197-0.402
	c0.755,0.13,1.442,0.524,1.937,1.11c0.495,0.587,0.767,1.333,0.764,2.101c0,2.154-2.633,3.095-2.933,3.194
	C9.151,10.733,9.044,10.75,8.94,10.75z"/>
<path d="M9.008,13.75c-0.552,0-1.004-0.447-1.004-1s0.444-1,0.996-1h0.008c0.552,0,1,0.447,1,1
	S9.561,13.75,9.008,13.75z"/>
</svg>
