<svg fill="#083A9B" version="1.1" id="Layer_1" xmlns="http://www.w3.org/2000/svg" xmlns:xlink="http://www.w3.org/1999/xlink" x="0px" y="0px"
	 width="18px" height="18px" viewBox="0 0 18 18" enable-background="new 0 0 18 18" xml:space="preserve">
<path d="M9.75,16.75c-0.032,0-0.065-0.002-0.099-0.005c-0.42-0.042-0.769-0.343-0.872-0.753l-1.354-5.418L2.007,9.22
	c-0.41-0.103-0.711-0.451-0.752-0.872S1.44,7.527,1.822,7.346l14.25-6.75c0.381-0.181,0.836-0.103,1.135,0.197
	c0.299,0.299,0.378,0.753,0.196,1.135l-6.75,14.25C10.487,16.529,10.134,16.75,9.75,16.75z M5.203,7.958l3.29,0.822
	C8.851,8.87,9.13,9.149,9.22,9.508l0.822,3.289l4.355-9.194L5.203,7.958z"/>
</svg>
