<svg fill="#083A9B" version="1.1" id="Layer_1" xmlns="http://www.w3.org/2000/svg" xmlns:xlink="http://www.w3.org/1999/xlink" x="0px" y="0px"
	 width="24px" height="24px" viewBox="0 0 24 24" enable-background="new 0 0 24 24" xml:space="preserve">
<path d="M20,21H4c-1.654,0-3-1.346-3-3V6c0-1.654,1.346-3,3-3h16c1.654,0,3,1.346,3,3v12C23,19.654,21.654,21,20,21z
	 M4,5C3.449,5,3,5.449,3,6v12c0,0.552,0.449,1,1,1h16c0.552,0,1-0.448,1-1V6c0-0.551-0.448-1-1-1H4z"/>
<path d="M12,14c-0.201,0-0.401-0.061-0.573-0.181l-10-7c-0.453-0.317-0.563-0.94-0.246-1.393
	c0.318-0.452,0.941-0.562,1.393-0.246L12,11.779l9.427-6.599c0.451-0.316,1.075-0.207,1.393,0.246
	c0.316,0.452,0.207,1.076-0.246,1.393l-10,7C12.401,13.939,12.201,14,12,14z"/>
</svg>
