<svg width="41" height="40" viewBox="0 0 41 40" fill="none" xmlns="http://www.w3.org/2000/svg">
    <circle cx="20.5" cy="20" r="20" fill="#083A9B"/>
    <path d="M10.0237 25.8243L10.1314 25.7248C10.5708 25.3103 11.2257 25.2357 11.748 25.5258C13.8952 26.7196 19.7979 29.1652 25.5845 24.2491C25.5845 24.2491 31.9515 19.4822 28.569 11.2168C28.3452 10.6779 28.4944 10.0561 28.9255 9.6665C29.5141 9.14421 30.4178 9.21054 30.9152 9.81573C33.2613 12.6759 37.9785 22.2263 30.31 29.4886C30.2768 29.5217 30.2437 29.5632 30.2022 29.5881C29.7214 30.0026 26.3804 32.7301 22.2435 32.9373C22.2104 32.9373 22.1855 32.9373 22.1523 32.9456C21.6135 33.0119 15.346 33.6752 9.94075 27.7559C9.43504 27.2005 9.47649 26.3383 10.0237 25.8243Z" fill="#FFBC00"/>
    <path d="M25.7825 9.82304C25.7908 9.88936 27.0675 9.62407 27.0675 9.62407C27.0675 9.62407 27.0261 8.43856 28.0789 7.84995C28.0789 7.84995 29.3888 7.20331 30.1681 7.80021L31.0551 6.73905C31.0551 6.73905 29.596 5.30483 27.366 6.43231C27.366 6.43231 25.5172 7.26134 25.7825 9.82304Z" fill="#FFE145"/>
    <path d="M6.89728 27.1001C6.92215 27.1581 8.04963 26.4949 8.04963 26.4949C8.04963 26.4949 7.62683 25.3923 8.43098 24.4886C8.43098 24.4886 9.45898 23.4523 10.3958 23.7591L10.8932 22.4658C10.8932 22.4658 9.05275 21.5787 7.3035 23.3694C7.29521 23.3777 5.81125 24.7705 6.89728 27.1001Z" fill="#FFE145"/>
    <path d="M21.3855 31.8162C20.7762 31.8878 14.802 32.4515 9.62574 26.7832C9.30808 26.4339 9.32984 25.8848 9.68022 25.5542C9.68068 25.5538 9.68114 25.5534 9.6816 25.5529L9.78618 25.4564L9.7862 25.4565L9.79015 25.4527C10.0682 25.1904 10.4855 25.1409 10.8208 25.3272C13.0251 26.5527 19.1859 29.1155 25.214 24.0028L25.2249 23.9944C25.2392 23.9833 25.2593 23.9675 25.2846 23.9471C25.3353 23.9062 25.4072 23.8466 25.4963 23.7688C25.6743 23.6131 25.9214 23.3836 26.2056 23.0827C26.7732 22.4817 27.4931 21.591 28.1034 20.4293C29.3314 18.0921 30.102 14.6793 28.3474 10.3917L28.3464 10.3892C28.2064 10.0523 28.2973 9.65528 28.5747 9.40325C28.9541 9.06824 29.5298 9.11497 29.8442 9.49709C30.968 10.8671 32.6892 13.8862 33.1886 17.4353C33.6843 20.9586 32.9777 24.9896 29.2818 28.4898L29.2817 28.4897L29.272 28.4993C29.2643 28.507 29.2574 28.5142 29.2516 28.5202L29.2366 28.536L29.2325 28.5404L29.2238 28.5456L29.1913 28.5736C28.7254 28.9753 25.5006 31.5982 21.5468 31.8016C21.5145 31.8016 21.4564 31.8024 21.3855 31.8162Z" stroke="#FFD600"/>
    <path d="M9.3511 25.1436L9.45888 25.0441C9.89826 24.6296 10.5532 24.555 11.0755 24.8451C13.2227 26.039 19.1253 28.4846 24.912 23.5684C24.912 23.5684 31.2789 18.8015 27.8965 10.5361C27.6726 9.99725 27.8219 9.37548 28.253 8.98584C28.8416 8.46355 29.7452 8.52987 30.2426 9.13506C32.5888 11.9952 37.3059 21.5456 29.6374 28.8079C29.6043 28.8411 29.5711 28.8825 29.5297 28.9074C29.0488 29.3219 25.7078 32.0494 21.571 32.2567C21.5378 32.2567 21.513 32.2567 21.4798 32.265C20.9409 32.3313 14.6735 32.9945 9.2682 27.0752C8.76249 26.5198 8.80395 25.6576 9.3511 25.1436Z" fill="#FFE145"/>
    <path d="M29.8448 10.9092C32.7381 16.5217 31.7598 23.2617 27.1256 27.0587C22.5162 30.8307 15.7762 30.4825 10.8517 26.611" stroke="#FFBC00" stroke-miterlimit="10" stroke-linecap="round"/>
</svg>
