<svg fill="#083A9B" version="1.1" id="Layer_1" xmlns="http://www.w3.org/2000/svg" xmlns:xlink="http://www.w3.org/1999/xlink" x="0px" y="0px"
	 width="18px" height="18px" viewBox="0 0 18 18" enable-background="new 0 0 18 18" xml:space="preserve">
<path d="M9,16c-0.552,0-1-0.447-1-1V3c0-0.552,0.448-1,1-1c0.553,0,1,0.448,1,1v12C10,15.553,9.553,16,9,16z"/>
<path d="M15,10c-0.256,0-0.512-0.098-0.707-0.293L9,4.414L3.707,9.707c-0.391,0.391-1.023,0.391-1.414,0
	s-0.391-1.023,0-1.414l6-6c0.391-0.391,1.023-0.391,1.414,0l6,6c0.391,0.391,0.391,1.023,0,1.414C15.512,9.902,15.256,10,15,10z"/>
</svg>
