<svg width="24" height="24" viewBox="0 0 250 250" fill="none" xmlns="http://www.w3.org/2000/svg">
<g clip-path="url(#clip0)">
<path d="M18.403 4.26402C14.496 0.356968 8.17163 0.356344 4.26403 4.26402C0.356943 8.17107 0.356358 14.4954 4.26403 18.403C8.171 22.31 14.4954 22.3106 18.403 18.403C22.3101 14.4959 22.3106 8.17165 18.403 4.26402ZM17.9851 16.9778C17.518 16.5601 17.0183 16.1905 16.4916 15.8719C16.8398 14.6694 17.046 13.3461 17.0947 11.9706H20.0341C19.9012 13.8247 19.1888 15.5639 17.9851 16.9778ZM2.63286 11.9706H5.57222C5.62097 13.3461 5.82721 14.6694 6.17533 15.8719C5.64865 16.1905 5.14897 16.5601 4.68186 16.9778C3.47815 15.5639 2.7658 13.8247 2.63286 11.9706ZM4.68189 5.68918C5.14901 6.10689 5.64868 6.47655 6.17536 6.79512C5.82725 7.99761 5.62101 9.32087 5.57226 10.6964H2.63286C2.7658 8.84236 3.47815 7.10311 4.68189 5.68918ZM10.6964 6.92681C9.65733 6.85249 8.65545 6.59657 7.72664 6.17437C8.26682 4.78336 9.26265 3.11499 10.6964 2.70154V6.92681ZM10.6964 8.20342V10.6964H6.84701C6.89111 9.53285 7.05598 8.41552 7.33017 7.39319C8.38567 7.85461 9.52084 8.13016 10.6964 8.20342ZM10.6964 11.9706V14.4636C9.52084 14.5369 8.38567 14.8124 7.33017 15.2739C7.05598 14.2515 6.89111 13.1342 6.84701 11.9706H10.6964ZM10.6964 15.7402V19.9655C9.26273 19.552 8.2669 17.8839 7.72664 16.4927C8.65545 16.0705 9.65733 15.8146 10.6964 15.7402ZM11.9706 15.7402C13.0097 15.8146 14.0116 16.0705 14.9404 16.4927C14.4001 17.8837 13.4044 19.552 11.9706 19.9655V15.7402ZM11.9706 14.4636V11.9706H15.82C15.7759 13.1342 15.611 14.2515 15.3368 15.2739C14.2813 14.8124 13.1462 14.5369 11.9706 14.4636ZM11.9706 10.6964V8.20342C13.1462 8.13016 14.2813 7.85461 15.3368 7.39319C15.611 8.41552 15.7759 9.53285 15.82 10.6964H11.9706ZM11.9706 6.92681V2.70158C13.4044 3.11503 14.4002 4.7834 14.9404 6.17441C14.0116 6.59657 13.0097 6.85249 11.9706 6.92681ZM14.8323 3.33766C15.6479 3.69479 16.4087 4.17905 17.0908 4.77989C16.7661 5.06614 16.4236 5.32569 16.0659 5.55781C15.7482 4.77126 15.3424 4.00688 14.8323 3.33766ZM6.60111 5.55781C6.2434 5.32569 5.90086 5.06614 5.57617 4.77989C6.25823 4.17905 7.01909 3.69479 7.83464 3.33766C7.32458 4.00696 6.91878 4.77134 6.60111 5.55781ZM6.60115 17.1092C6.91878 17.8958 7.32466 18.6602 7.83468 19.3294C7.01913 18.9723 6.25827 18.488 5.5762 17.8872C5.90086 17.6009 6.24343 17.3414 6.60115 17.1092ZM16.0659 17.1092C16.4236 17.3414 16.7661 17.6009 17.0908 17.8871C16.4087 18.488 15.6479 18.9722 14.8323 19.3294C15.3423 18.6602 15.7482 17.8958 16.0659 17.1092ZM17.0948 10.6964C17.046 9.32091 16.8398 7.99761 16.4917 6.79516C17.0184 6.47659 17.518 6.10693 17.9852 5.68922C19.1889 7.10311 19.9012 8.84236 20.0341 10.6964H17.0948Z" fill="#083A9B" stroke="#083A9B" stroke-width="0.5"/>
</g>
<defs>
<clipPath id="clip0">
<path d="M0 0H24V24H0V0Z" fill="white"/>
</clipPath>
</defs>
</svg>
