<svg width="72" height="72" viewBox="0 0 72 72" fill="none" xmlns="http://www.w3.org/2000/svg">
<g clip-path="url(#clip0)">
<path d="M58.4411 7.88049C53.6603 3.74378 47.699 2.07396 41.5374 1.33621C25.126 -3.89835 10.4871 6.92747 4.09504 21.9385C-2.7947 38.1177 0.483298 56.1787 15.4227 66.2684C30.6748 76.5683 51.6355 72.3345 63.3353 58.7757C76.1211 43.9563 72.9648 20.4499 58.4411 7.88049ZM30.3309 66.6728C21.6787 65.4412 13.2834 60.1176 8.89909 52.5271C4.97948 45.7401 5.0123 37.2414 6.76933 29.8286C9.47028 18.4325 17.6428 8.14736 28.3239 5.6857C28.3399 5.68648 28.3532 5.6911 28.3694 5.6911C32.2138 5.80497 36.2727 5.81159 40.241 6.24072C40.6166 6.35844 40.9929 6.47539 41.3707 6.6136C41.9966 6.84165 42.5436 6.81237 43.0022 6.62454C47.2828 7.3452 51.3709 8.71686 54.8591 11.4616C62.5755 17.5333 66.6433 28.4819 66.4204 38.0713C66.0025 56.1467 47.4524 69.1094 30.3309 66.6728Z" fill="#FFE144"/>
<path d="M26.0826 32.6525C29.6697 32.6525 29.6697 27.0894 26.0826 27.0894C22.4959 27.0893 22.4959 32.6525 26.0826 32.6525Z" fill="#FFE144"/>
<path d="M45.275 32.9302C48.8616 32.9302 48.8616 27.3674 45.275 27.3674C41.6876 27.3674 41.6876 32.9302 45.275 32.9302Z" fill="#FFE144"/>
<path d="M46.6459 42.368C39.9817 48.9898 31.3844 48.3293 24.7116 42.0894C22.0952 39.6427 18.1528 43.5683 20.778 46.0235C29.6571 54.3276 41.743 55.0816 50.579 46.3011C53.1268 43.77 49.1918 39.8376 46.6459 42.368Z" fill="#FFE144"/>
</g>
<defs>
<clipPath id="clip0">
<rect width="72" height="72" fill="white"/>
</clipPath>
</defs>
</svg>
