<svg fill="#FFFFFF" version="1.1" id="Layer_1" xmlns="http://www.w3.org/2000/svg" xmlns:xlink="http://www.w3.org/1999/xlink" x="0px" y="0px"
	 width="18px" height="18px" viewBox="0 0 18 18" enable-background="new 0 0 18 18" xml:space="preserve">
<g>
	<defs>
		<rect id="SVGID_1_" width="18" height="18"/>
	</defs>
	<clipPath id="SVGID_2_">
		<use xlink:href="#SVGID_1_"  overflow="visible"/>
	</clipPath>
	<g clip-path="url(#SVGID_2_)">
		<path d="M17.25,6.522c-0.415,0-0.75-0.336-0.75-0.75V2.217c0-0.395-0.322-0.717-0.717-0.717h-3.555
			c-0.414,0-0.75-0.336-0.75-0.75S11.814,0,12.229,0h3.555C17.006,0,18,0.995,18,2.217v3.555C18,6.186,17.664,6.522,17.25,6.522z"/>
		<path d="M0.75,6.522C0.335,6.522,0,6.186,0,5.772V2.217C0,0.995,0.994,0,2.216,0h3.555
			c0.415,0,0.75,0.336,0.75,0.75S6.186,1.5,5.771,1.5H2.216C1.822,1.5,1.5,1.822,1.5,2.217v3.555C1.5,6.186,1.165,6.522,0.75,6.522z
			"/>
		<path d="M15.783,18h-3.555c-0.414,0-0.75-0.336-0.75-0.75s0.336-0.75,0.75-0.75h3.555
			c0.395,0,0.717-0.322,0.717-0.717v-3.555c0-0.414,0.335-0.75,0.75-0.75c0.414,0,0.75,0.336,0.75,0.75v3.555
			C18,17.006,17.006,18,15.783,18z"/>
		<path d="M5.771,18H2.216C0.994,18,0,17.006,0,15.783v-3.555c0-0.414,0.335-0.75,0.75-0.75s0.75,0.336,0.75,0.75
			v3.555c0,0.395,0.322,0.717,0.716,0.717h3.555c0.415,0,0.75,0.336,0.75,0.75S6.186,18,5.771,18z"/>
		<path d="M17,9.75H1c-0.552,0-1-0.448-1-1s0.448-1,1-1h16c0.553,0,1,0.448,1,1S17.553,9.75,17,9.75z"/>
	</g>
</g>
</svg>
