<svg width="20" height="20" viewBox="0 0 250 250" fill="none" xmlns="http://www.w3.org/2000/svg">
<g clip-path="url(#clip0)">
<path d="M19.1664 7.24666C18.7056 7.24666 18.3331 6.87333 18.3331 6.41333V2.46333C18.3331 2.02416 17.9756 1.66666 17.5372 1.66666H13.5872C13.1264 1.66666 12.7539 1.29333 12.7539 0.833326C12.7539 0.373326 13.1264 -7.62939e-06 13.5872 -7.62939e-06H17.5372C18.8956 -7.62939e-06 19.9997 1.10499 19.9997 2.46333V6.41333C19.9997 6.87333 19.6272 7.24666 19.1664 7.24666Z" fill="white"/>
<path d="M0.833333 7.24667C0.3725 7.24667 0 6.87333 0 6.41333V2.46333C0 1.105 1.10417 0 2.4625 0H6.4125C6.87333 0 7.24583 0.373333 7.24583 0.833333C7.24583 1.29333 6.87333 1.66667 6.4125 1.66667H2.4625C2.02417 1.66667 1.66667 2.02417 1.66667 2.46333V6.41333C1.66667 6.87333 1.29417 7.24667 0.833333 7.24667Z" fill="white"/>
<path d="M17.5372 20H13.5872C13.1264 20 12.7539 19.6267 12.7539 19.1667C12.7539 18.7067 13.1264 18.3333 13.5872 18.3333H17.5372C17.9756 18.3333 18.3331 17.9758 18.3331 17.5367V13.5866C18.3331 13.1266 18.7056 12.7533 19.1664 12.7533C19.6272 12.7533 19.9997 13.1266 19.9997 13.5866V17.5367C19.9997 18.895 18.8956 20 17.5372 20Z" fill="white"/>
<path d="M6.4125 20H2.4625C1.10417 20 0 18.895 0 17.5367V13.5866C0 13.1266 0.3725 12.7533 0.833333 12.7533C1.29417 12.7533 1.66667 13.1266 1.66667 13.5866V17.5367C1.66667 17.9758 2.02417 18.3333 2.4625 18.3333H6.4125C6.87333 18.3333 7.24583 18.7067 7.24583 19.1667C7.24583 19.6267 6.87333 20 6.4125 20Z" fill="white"/>
<path d="M7.89866 9.2992H3.75033C3.28949 9.2992 2.91699 8.92586 2.91699 8.46586V3.75003C2.91699 3.29003 3.28949 2.91669 3.75033 2.91669H7.89866C8.35949 2.91669 8.73199 3.29003 8.73199 3.75003V8.46586C8.73199 8.92586 8.35866 9.2992 7.89866 9.2992ZM4.58366 7.63253H7.06533V4.58336H4.58366V7.63253Z" fill="white"/>
<path d="M16.2497 17.0833H12.2913C11.8305 17.0833 11.458 16.71 11.458 16.25V13.5983C11.458 13.1383 11.8305 12.765 12.2913 12.765C12.7522 12.765 13.1247 13.1383 13.1247 13.5983V15.4167H15.4163V12.9167H14.4313C13.9705 12.9167 13.598 12.5433 13.598 12.0833C13.598 11.6233 13.9705 11.25 14.4313 11.25H16.2497C16.7105 11.25 17.083 11.6233 17.083 12.0833V16.25C17.083 16.71 16.7105 17.0833 16.2497 17.0833Z" fill="white"/>
<path d="M16.2498 7.99253H12.8407C12.3798 7.99253 12.0073 7.61919 12.0073 7.15919V3.75003C12.0073 3.29003 12.3798 2.91669 12.8407 2.91669H16.2498C16.7106 2.91669 17.0831 3.29003 17.0831 3.75003V7.15919C17.0831 7.61919 16.7106 7.99253 16.2498 7.99253ZM13.674 6.32586H15.4165V4.58336H13.674V6.32586Z" fill="white"/>
<path d="M10.3986 11.7799H3.75032C3.28949 11.7799 2.91699 11.4066 2.91699 10.9466C2.91699 10.4866 3.28949 10.1133 3.75032 10.1133H9.56532V4.50746C9.56532 4.04746 9.93782 3.67413 10.3986 3.67413C10.8595 3.67413 11.232 4.04746 11.232 4.50746V10.9466C11.232 11.4066 10.8586 11.7799 10.3986 11.7799Z" fill="white"/>
<path d="M12.7083 11.5716C12.2475 11.5716 11.875 11.1983 11.875 10.7383V9.60245C11.875 9.14245 12.2475 8.76912 12.7083 8.76912H16.4583C16.9192 8.76912 17.2917 9.14245 17.2917 9.60245C17.2917 10.0624 16.9192 10.4358 16.4583 10.4358H13.5417V10.7383C13.5417 11.1983 13.1692 11.5716 12.7083 11.5716Z" fill="white"/>
<path d="M10.0184 16.0008C9.55756 16.0008 9.18506 15.6275 9.18506 15.1675V13.2741C9.18506 12.8141 9.55756 12.4408 10.0184 12.4408C10.4792 12.4408 10.8517 12.8141 10.8517 13.2741V15.1675C10.8517 15.6275 10.4792 16.0008 10.0184 16.0008Z" fill="white"/>
<path d="M7.70866 17.0833H3.75033C3.28949 17.0833 2.91699 16.71 2.91699 16.25V13.22C2.91699 12.76 3.28949 12.3867 3.75033 12.3867H7.70866C8.16949 12.3867 8.54199 12.76 8.54199 13.22V16.25C8.54199 16.71 8.16949 17.0833 7.70866 17.0833ZM4.58366 15.4167H6.87533V14.0534H4.58366V15.4167Z" fill="white"/>
</g>
<defs>
<clipPath id="clip0">
<rect width="20" height="20" fill="white"/>
</clipPath>
</defs>
</svg>
