<svg fill="#083A9B" version="1.1" id="Layer_1" xmlns="http://www.w3.org/2000/svg" xmlns:xlink="http://www.w3.org/1999/xlink" x="0px" y="0px"
	 width="24px" height="24px" viewBox="0 0 24 24" enable-background="new 0 0 24 24" xml:space="preserve">
<path d="M14,23h-4c-0.552,0-1-0.447-1-1v-7H7c-0.552,0-1-0.447-1-1v-4c0-0.552,0.448-1,1-1h2V7
	c0-1.602,0.624-3.109,1.757-4.243C11.891,1.624,13.397,1,15,1h3c0.553,0,1,0.448,1,1v4c0,0.552-0.447,1-1,1h-3v2h3
	c0.308,0,0.599,0.142,0.788,0.385s0.257,0.559,0.182,0.858l-1,4C17.858,14.688,17.459,15,17,15h-2v7C15,22.553,14.553,23,14,23z
	 M11,21h2v-7c0-0.553,0.447-1,1-1h2.219l0.5-2H14c-0.553,0-1-0.448-1-1V7c0-0.534,0.208-1.036,0.586-1.414S14.466,5,15,5h2V3h-2
	c-1.068,0-2.073,0.416-2.829,1.172C11.416,4.927,11,5.932,11,7v3c0,0.552-0.448,1-1,1H8v2h2c0.552,0,1,0.447,1,1V21z"/>
</svg>
