<svg fill="#083A9B" version="1.1"
	 id="svg6" xmlns:dc="http://purl.org/dc/elements/1.1/" xmlns:cc="http://creativecommons.org/ns#" xmlns:rdf="http://www.w3.org/1999/02/22-rdf-syntax-ns#" xmlns:svg="http://www.w3.org/2000/svg" xmlns:sodipodi="http://sodipodi.sourceforge.net/DTD/sodipodi-0.dtd" xmlns:inkscape="http://www.inkscape.org/namespaces/inkscape" inkscape:version="0.92.4 (5da689c313, 2019-01-14)" sodipodi:docname="ICON_ARROW-DOWN.svg"
	 xmlns="http://www.w3.org/2000/svg" xmlns:xlink="http://www.w3.org/1999/xlink" x="0px" y="0px" width="18px" height="18px"
	 viewBox="0 0 18 18" enable-background="new 0 0 18 18" xml:space="preserve">
<path id="path2" inkscape:connector-curvature="0" d="M8.984,1.986C8.433,1.995,7.993,2.448,8,3v12
	c-0.008,0.553,0.434,1.006,0.986,1.014S9.992,15.58,10,15.028c0-0.009,0-0.019,0-0.028V3c0.008-0.552-0.434-1.006-0.986-1.014
	C9.004,1.986,8.994,1.986,8.984,1.986z"/>
<path d="M9,16c-0.256,0-0.512-0.098-0.707-0.293l-6-6c-0.391-0.391-0.391-1.023,0-1.414s1.023-0.391,1.414,0
	L9,13.586l5.293-5.293c0.391-0.391,1.023-0.391,1.414,0s0.391,1.023,0,1.414l-6,6C9.512,15.902,9.256,16,9,16z"/>
</svg>
