<svg fill="#083A9B" version="1.1" id="Layer_1" xmlns="http://www.w3.org/2000/svg" xmlns:xlink="http://www.w3.org/1999/xlink" x="0px" y="0px"
	 width="18px" height="18px" viewBox="0 0 18 18" enable-background="new 0 0 18 18" xml:space="preserve">
<path d="M9,17.5c-4.687,0-8.5-3.813-8.5-8.5c0-4.687,3.813-8.5,8.5-8.5c4.687,0,8.5,3.813,8.5,8.5
	C17.5,13.687,13.687,17.5,9,17.5z M9,2.5C5.416,2.5,2.5,5.416,2.5,9s2.916,6.5,6.5,6.5s6.5-2.916,6.5-6.5S12.584,2.5,9,2.5z"/>
<path d="M11.999,11.5c-0.15,0-0.303-0.034-0.446-0.105l-3-1.5C8.214,9.725,8,9.379,8,9V4.5c0-0.552,0.448-1,1-1
	c0.553,0,1,0.448,1,1v3.882l2.447,1.224c0.494,0.247,0.694,0.848,0.447,1.342C12.719,11.298,12.366,11.5,11.999,11.5z"/>
</svg>
