<svg fill="#FFFFFF" version="1.1" id="Layer_1" xmlns="http://www.w3.org/2000/svg" xmlns:xlink="http://www.w3.org/1999/xlink" x="0px" y="0px"
	 width="18px" height="18px" viewBox="0 0 18 18" enable-background="new 0 0 18 18" xml:space="preserve">
<g>
	<defs>
		<rect id="SVGID_1_" width="18" height="18"/>
	</defs>
	<clipPath id="SVGID_2_">
		<use xlink:href="#SVGID_1_"  overflow="visible"/>
	</clipPath>
	<g clip-path="url(#SVGID_2_)">
		<path d="M9,12.25c-1.792,0-3.25-1.458-3.25-3.25S7.208,5.75,9,5.75S12.25,7.208,12.25,9S10.792,12.25,9,12.25z
			 M9,7.75C8.311,7.75,7.75,8.311,7.75,9S8.311,10.25,9,10.25S10.25,9.689,10.25,9S9.689,7.75,9,7.75z"/>
		<path d="M9.06,18.25c-0.667,0-1.295-0.26-1.768-0.732s-0.732-1.1-0.732-1.768
			c-0.001-0.091-0.017-0.138-0.043-0.176c-0.029-0.04-0.067-0.069-0.113-0.086l-0.152-0.044c-0.091,0.013-0.135,0.035-0.169,0.069
			c-0.267,0.27-0.541,0.452-0.847,0.578c-0.601,0.252-1.308,0.253-1.917-0.001c-0.302-0.125-0.575-0.308-0.808-0.541
			c-0.234-0.235-0.416-0.508-0.542-0.812c-0.126-0.304-0.191-0.626-0.191-0.957s0.064-0.653,0.192-0.959
			c0.125-0.302,0.307-0.574,0.54-0.809c0.072-0.072,0.094-0.115,0.103-0.163c0.008-0.045,0.003-0.092-0.016-0.135
			c-0.024-0.056-0.053-0.091-0.091-0.115c-0.04-0.026-0.083-0.04-0.127-0.04H2.25c-0.667,0-1.295-0.26-1.768-0.732
			C0.017,10.362-0.25,9.719-0.25,9.06c0-0.667,0.26-1.295,0.732-1.768C0.954,6.82,1.582,6.56,2.25,6.56
			c0.092-0.001,0.138-0.016,0.177-0.044c0.039-0.027,0.068-0.066,0.085-0.112c0.042-0.101,0.048-0.149,0.04-0.197
			C2.543,6.161,2.521,6.118,2.488,6.084c-0.271-0.27-0.454-0.543-0.58-0.849c-0.126-0.303-0.19-0.625-0.19-0.956
			S1.782,3.625,1.909,3.32c0.126-0.304,0.309-0.577,0.543-0.811c0.232-0.232,0.505-0.415,0.811-0.542
			C3.87,1.716,4.565,1.715,5.177,1.969C5.48,2.094,5.754,2.277,5.988,2.512c0.07,0.069,0.113,0.091,0.161,0.1
			c0.068-0.03,0.177-0.057,0.286-0.076c0.01-0.01,0.019-0.021,0.026-0.033C6.486,2.465,6.5,2.42,6.5,2.374V2.25
			c0-0.667,0.26-1.295,0.732-1.768c0.945-0.944,2.591-0.944,3.535,0C11.24,0.955,11.5,1.583,11.5,2.25
			c0,0.11,0.014,0.156,0.04,0.196c0.024,0.036,0.061,0.066,0.104,0.085l0.105,0.024c0.089-0.012,0.133-0.035,0.168-0.069
			c0.267-0.269,0.54-0.451,0.846-0.578c0.61-0.254,1.307-0.253,1.915,0c0.3,0.123,0.572,0.305,0.808,0.538
			c0.241,0.243,0.423,0.517,0.547,0.821c0.124,0.296,0.189,0.62,0.189,0.952s-0.065,0.655-0.193,0.961
			c-0.12,0.294-0.302,0.569-0.536,0.805c-0.074,0.073-0.097,0.117-0.105,0.166c-0.008,0.043-0.002,0.091,0.018,0.136
			c0.02,0.045,0.036,0.092,0.05,0.139c0.012,0.013,0.025,0.024,0.04,0.034C15.535,6.486,15.58,6.5,15.627,6.5h0.123
			c0.668,0,1.295,0.26,1.768,0.732S18.25,8.333,18.25,9c0,0.668-0.26,1.295-0.732,1.768s-1.1,0.732-1.768,0.732
			c-0.11,0-0.156,0.015-0.195,0.04c-0.037,0.024-0.067,0.061-0.085,0.103c-0.024,0.054-0.029,0.102-0.021,0.147
			c0.009,0.05,0.032,0.094,0.067,0.13c0.264,0.261,0.448,0.535,0.576,0.844c0.126,0.302,0.19,0.625,0.19,0.957
			c0,0.333-0.064,0.656-0.191,0.96c-0.126,0.304-0.31,0.577-0.544,0.812c-0.23,0.231-0.506,0.415-0.813,0.541
			c-0.594,0.248-1.302,0.252-1.913-0.004c-0.299-0.122-0.574-0.306-0.81-0.542c-0.069-0.068-0.113-0.091-0.162-0.1
			c-0.004,0.002-0.143,0.021-0.146,0.022c-0.042,0.018-0.077,0.047-0.102,0.085c-0.026,0.039-0.04,0.084-0.04,0.128v0.127
			c0,0.668-0.26,1.295-0.732,1.768C10.362,17.983,9.719,18.25,9.06,18.25z M6.251,13.444c0.312,0,0.615,0.064,0.902,0.19
			c0.367,0.134,0.729,0.41,0.991,0.777c0.26,0.364,0.405,0.796,0.415,1.247c0,0.225,0.053,0.35,0.147,0.444
			c0.188,0.189,0.52,0.187,0.708,0c0.095-0.095,0.146-0.22,0.146-0.354v-0.127c0-0.438,0.128-0.862,0.37-1.229
			s0.584-0.651,0.988-0.823c0.391-0.173,0.847-0.229,1.289-0.15c0.445,0.083,0.847,0.29,1.166,0.603
			c0.101,0.1,0.154,0.136,0.211,0.159c0.137,0.057,0.265,0.053,0.384,0.004c0.065-0.027,0.119-0.063,0.163-0.108
			c0.052-0.05,0.087-0.104,0.112-0.164c0.025-0.062,0.038-0.125,0.038-0.192c0-0.066-0.013-0.13-0.037-0.189
			c-0.025-0.062-0.062-0.116-0.105-0.159c-0.373-0.384-0.58-0.785-0.659-1.224c-0.08-0.438-0.027-0.889,0.154-1.301
			c0.167-0.393,0.45-0.732,0.815-0.976c0.367-0.242,0.791-0.37,1.229-0.372c0.205,0,0.33-0.052,0.425-0.146
			C16.198,9.259,16.25,9.133,16.25,9s-0.052-0.259-0.146-0.354C16.009,8.552,15.884,8.5,15.75,8.5h-0.127
			c-0.442-0.002-0.866-0.13-1.231-0.372c-0.363-0.24-0.648-0.581-0.821-0.985c-0.032-0.076-0.055-0.155-0.067-0.236
			c-0.122-0.358-0.15-0.74-0.083-1.115c0.082-0.445,0.29-0.847,0.603-1.166c0.099-0.098,0.136-0.153,0.159-0.21
			c0.028-0.068,0.041-0.132,0.041-0.197S14.21,4.09,14.186,4.031c-0.027-0.066-0.064-0.122-0.112-0.169
			c-0.043-0.043-0.099-0.081-0.158-0.105c-0.125-0.053-0.265-0.052-0.386-0.001c-0.061,0.025-0.115,0.062-0.161,0.107
			C12.991,4.232,12.59,4.439,12.15,4.52c-0.451,0.081-0.895,0.026-1.303-0.154c-0.394-0.169-0.733-0.452-0.976-0.816
			C9.63,3.181,9.502,2.758,9.5,2.321c0-0.205-0.052-0.33-0.146-0.425c-0.189-0.188-0.518-0.188-0.707,0
			C8.552,1.991,8.5,2.117,8.5,2.25v0.127c-0.002,0.442-0.13,0.866-0.372,1.23C7.886,3.973,7.545,4.257,7.143,4.429
			C7.067,4.461,6.988,4.484,6.908,4.497C6.552,4.618,6.167,4.647,5.792,4.58C5.349,4.499,4.946,4.291,4.626,3.978
			c-0.101-0.1-0.155-0.136-0.215-0.161C4.285,3.764,4.15,3.765,4.028,3.815C3.966,3.841,3.912,3.877,3.866,3.924
			c-0.048,0.048-0.085,0.104-0.11,0.163C3.73,4.148,3.718,4.212,3.718,4.279s0.013,0.13,0.038,0.19
			c0.026,0.062,0.062,0.116,0.108,0.162C4.23,5.006,4.438,5.408,4.52,5.85C4.6,6.293,4.546,6.743,4.365,7.153
			C4.232,7.519,3.956,7.881,3.59,8.143C3.223,8.405,2.791,8.549,2.341,8.56c-0.225,0-0.35,0.052-0.444,0.146
			C1.802,8.801,1.75,8.927,1.75,9.06c0,0.132,0.053,0.261,0.146,0.354c0.095,0.095,0.22,0.146,0.354,0.146h0.127
			c0.437,0,0.862,0.128,1.229,0.37c0.367,0.242,0.651,0.584,0.824,0.988c0.176,0.396,0.229,0.847,0.149,1.289
			c-0.081,0.443-0.289,0.846-0.602,1.166c-0.099,0.099-0.137,0.155-0.162,0.216c-0.026,0.063-0.039,0.126-0.039,0.191
			s0.013,0.129,0.038,0.189c0.026,0.063,0.064,0.119,0.111,0.166c0.045,0.046,0.1,0.082,0.161,0.107
			c0.123,0.051,0.262,0.049,0.381,0.001c0.064-0.026,0.119-0.063,0.164-0.108c0.378-0.369,0.78-0.576,1.221-0.656
			C5.982,13.457,6.117,13.444,6.251,13.444z"/>
	</g>
</g>
</svg>
