<svg fill="#083A9B" version="1.1" id="Layer_1" xmlns="http://www.w3.org/2000/svg" xmlns:xlink="http://www.w3.org/1999/xlink" x="0px" y="0px"
	 width="24px" height="24px" viewBox="0 0 24 24" enable-background="new 0 0 24 24" xml:space="preserve">
<g>
	<defs>
		<rect id="SVGID_1_" width="24" height="24"/>
	</defs>
	<clipPath id="SVGID_2_">
		<use xlink:href="#SVGID_1_"  overflow="visible"/>
	</clipPath>
	<g clip-path="url(#SVGID_2_)">
		<g>
			<path d="M18.402,4.264c-3.906-3.907-10.231-3.908-14.138,0c-3.907,3.907-3.908,10.232,0,14.138
				c3.907,3.908,10.232,3.908,14.138,0C22.311,14.496,22.311,8.172,18.402,4.264z M17.984,16.978
				c-0.467-0.417-0.967-0.787-1.492-1.105c0.348-1.202,0.554-2.526,0.603-3.901h2.939C19.901,13.824,19.189,15.564,17.984,16.978z
				 M2.633,11.971h2.939c0.049,1.375,0.255,2.699,0.603,3.901c-0.527,0.318-1.026,0.688-1.494,1.105
				C3.478,15.564,2.766,13.824,2.633,11.971z M4.682,5.689c0.467,0.417,0.966,0.787,1.493,1.105
				c-0.348,1.203-0.554,2.526-0.603,3.901H2.633C2.766,8.842,3.478,7.103,4.682,5.689z M10.696,6.927
				c-1.039-0.074-2.041-0.33-2.97-0.752c0.54-1.391,1.536-3.059,2.97-3.473V6.927z M10.696,8.204v2.493H6.847
				C6.891,9.533,7.056,8.416,7.33,7.393C8.386,7.854,9.521,8.13,10.696,8.204z M10.696,11.971v2.493
				c-1.175,0.073-2.311,0.349-3.366,0.81c-0.274-1.021-0.439-2.139-0.483-3.303H10.696z M10.696,15.74v4.225
				c-1.434-0.413-2.429-2.081-2.97-3.473C8.655,16.07,9.657,15.814,10.696,15.74z M11.971,15.74c1.039,0.074,2.041,0.33,2.97,0.752
				c-0.54,1.392-1.536,3.06-2.97,3.473V15.74z M11.971,14.464v-2.493h3.85c-0.045,1.164-0.209,2.281-0.483,3.303
				C14.281,14.813,13.146,14.537,11.971,14.464z M11.971,10.696V8.204c1.176-0.073,2.311-0.349,3.366-0.811
				c0.274,1.022,0.438,2.14,0.483,3.303H11.971z M11.971,6.927V2.702c1.434,0.414,2.43,2.082,2.97,3.473
				C14.012,6.597,13.01,6.853,11.971,6.927z M14.832,3.338c0.816,0.357,1.576,0.841,2.259,1.442
				c-0.325,0.287-0.667,0.546-1.024,0.778C15.748,4.771,15.342,4.007,14.832,3.338z M6.601,5.558
				c-0.358-0.232-0.7-0.491-1.025-0.778c0.682-0.601,1.443-1.085,2.258-1.442C7.325,4.007,6.919,4.771,6.601,5.558z M6.601,17.109
				c0.318,0.787,0.724,1.551,1.233,2.221c-0.815-0.357-1.576-0.842-2.258-1.443C5.901,17.602,6.244,17.342,6.601,17.109z
				 M16.066,17.109c0.357,0.232,0.699,0.492,1.024,0.777c-0.683,0.602-1.442,1.086-2.259,1.443
				C15.342,18.66,15.748,17.896,16.066,17.109z M17.095,10.696c-0.049-1.375-0.255-2.699-0.603-3.901
				c0.526-0.318,1.025-0.688,1.493-1.105c1.204,1.414,1.916,3.153,2.049,5.007H17.095z"/>
			<path d="M11.333,21.584c-2.736,0-5.31-1.067-7.246-3.005c-1.937-1.937-3.004-4.51-3.004-7.246
				s1.067-5.31,3.004-7.246c1.937-1.937,4.51-3.004,7.246-3.004s5.309,1.067,7.246,3.004c1.938,1.937,3.005,4.511,3.005,7.247
				c0,2.735-1.067,5.309-3.005,7.245C16.643,20.517,14.069,21.584,11.333,21.584z M11.333,1.583c-2.603,0-5.05,1.015-6.893,2.857
				c-1.843,1.842-2.857,4.29-2.857,6.893c0,2.602,1.015,5.05,2.857,6.892c1.842,1.843,4.29,2.858,6.893,2.858
				c2.602,0,5.05-1.016,6.892-2.858c1.843-1.842,2.858-4.29,2.858-6.892c0-2.603-1.016-5.05-2.858-6.893
				C16.384,2.598,13.936,1.583,11.333,1.583z M11.721,20.297v-4.825l0.268,0.02c1.064,0.076,2.093,0.336,3.056,0.773l0.215,0.098
				l-0.085,0.221c-0.357,0.92-1.378,3.116-3.134,3.622L11.721,20.297z M12.221,16.013v3.595c1.236-0.558,2.035-2.116,2.397-2.983
				C13.854,16.304,13.051,16.099,12.221,16.013z M10.946,20.297l-0.319-0.092c-1.691-0.487-2.689-2.479-3.133-3.622l-0.086-0.221
				l0.215-0.098c0.963-0.438,1.991-0.697,3.056-0.773l0.268-0.02V20.297z M8.049,16.624c0.362,0.867,1.161,2.426,2.397,2.983v-3.595
				C9.616,16.099,8.812,16.304,8.049,16.624z M8.618,19.946l-0.884-0.388c-0.844-0.369-1.625-0.869-2.323-1.484l-0.213-0.188
				l0.213-0.188c0.332-0.292,0.687-0.561,1.054-0.8l0.254-0.165l0.114,0.281c0.334,0.827,0.738,1.556,1.2,2.163L8.618,19.946z
				 M5.962,17.887c0.356,0.294,0.734,0.557,1.13,0.787c-0.219-0.368-0.42-0.765-0.604-1.187C6.309,17.613,6.132,17.747,5.962,17.887
				z M14.05,19.945l0.583-0.767c0.463-0.608,0.867-1.336,1.202-2.163l0.113-0.281l0.255,0.165c0.363,0.237,0.718,0.506,1.053,0.8
				l0.214,0.188l-0.214,0.188c-0.699,0.616-1.481,1.116-2.323,1.485L14.05,19.945z M16.179,17.487
				c-0.184,0.422-0.386,0.818-0.604,1.187c0.396-0.23,0.773-0.493,1.131-0.787C16.533,17.746,16.358,17.613,16.179,17.487z
				 M4.657,17.334L4.491,17.14C3.25,15.682,2.521,13.9,2.383,11.989l-0.019-0.268h3.449l0.009,0.241
				c0.048,1.355,0.248,2.647,0.593,3.841l0.053,0.184l-0.164,0.1c-0.511,0.309-1,0.671-1.457,1.078L4.657,17.334z M2.906,12.221
				c0.167,1.619,0.787,3.131,1.805,4.4c0.373-0.317,0.766-0.606,1.172-0.862c-0.305-1.109-0.49-2.298-0.551-3.538H2.906z
				 M18.009,17.334l-0.191-0.17c-0.453-0.405-0.942-0.768-1.455-1.078l-0.163-0.1l0.053-0.184c0.346-1.194,0.545-2.486,0.593-3.841
				l0.009-0.241h3.449l-0.02,0.268c-0.137,1.913-0.866,3.694-2.108,5.151L18.009,17.334z M16.784,15.759
				c0.407,0.258,0.8,0.546,1.171,0.862c1.02-1.269,1.64-2.78,1.807-4.4h-2.428C17.274,13.46,17.089,14.648,16.784,15.759z
				 M7.164,15.619l-0.076-0.281c-0.281-1.05-0.446-2.179-0.491-3.358l-0.01-0.259h4.359v2.979l-0.234,0.015
				c-1.141,0.07-2.246,0.336-3.282,0.789L7.164,15.619z M7.109,12.221c0.051,0.944,0.182,1.854,0.392,2.71
				c0.939-0.378,1.928-0.612,2.946-0.699v-2.011H7.109z M15.503,15.619l-0.266-0.116c-1.037-0.453-2.141-0.719-3.282-0.789
				l-0.234-0.015v-2.979h4.359l-0.01,0.26c-0.046,1.184-0.211,2.313-0.492,3.357L15.503,15.619z M12.221,14.231
				c1.019,0.087,2.007,0.321,2.946,0.699c0.209-0.853,0.34-1.762,0.392-2.71h-3.338V14.231z M20.303,10.946h-3.449l-0.009-0.241
				c-0.048-1.354-0.247-2.646-0.593-3.841L16.199,6.68l0.164-0.099c0.511-0.309,1-0.672,1.456-1.078l0.19-0.17l0.166,0.195
				c1.242,1.458,1.971,3.239,2.107,5.151L20.303,10.946z M17.334,10.446h2.428c-0.167-1.62-0.787-3.131-1.806-4.4
				c-0.373,0.316-0.766,0.605-1.172,0.862C17.089,8.019,17.274,9.207,17.334,10.446z M16.08,10.946h-4.359V7.969l0.234-0.015
				c1.141-0.071,2.245-0.337,3.281-0.79l0.267-0.116l0.075,0.28c0.281,1.046,0.446,2.176,0.492,3.358L16.08,10.946z M12.221,10.446
				h3.338c-0.052-0.948-0.183-1.857-0.392-2.71c-0.939,0.378-1.929,0.614-2.946,0.7V10.446z M10.946,10.946H6.587l0.01-0.259
				c0.044-1.178,0.21-2.308,0.491-3.358l0.076-0.281L7.43,7.164c1.037,0.453,2.141,0.719,3.282,0.79l0.234,0.015V10.946z
				 M7.109,10.446h3.337v-2.01C9.428,8.35,8.44,8.114,7.5,7.736C7.291,8.593,7.16,9.502,7.109,10.446z M5.813,10.946H2.364
				l0.019-0.268C2.521,8.767,3.25,6.986,4.492,5.527l0.166-0.195l0.191,0.17c0.454,0.406,0.943,0.768,1.456,1.078L6.469,6.68
				L6.416,6.864C6.07,8.058,5.87,9.351,5.822,10.705L5.813,10.946z M2.906,10.446h2.427c0.061-1.24,0.246-2.428,0.551-3.538
				C5.476,6.651,5.083,6.362,4.711,6.046C3.692,7.316,3.072,8.827,2.906,10.446z M11.721,7.195V2.369l0.319,0.092
				c1.756,0.506,2.776,2.702,3.134,3.623l0.085,0.22l-0.215,0.098c-0.962,0.438-1.99,0.698-3.056,0.774L11.721,7.195z M12.221,3.06
				v3.595c0.83-0.085,1.635-0.291,2.397-0.612C14.256,5.176,13.457,3.617,12.221,3.06z M10.946,7.195l-0.268-0.019
				C9.613,7.1,8.585,6.839,7.623,6.402L7.408,6.304l0.085-0.22c0.357-0.92,1.378-3.116,3.133-3.623l0.319-0.092V7.195z M8.049,6.042
				c0.763,0.321,1.567,0.526,2.397,0.612V3.06C9.21,3.617,8.411,5.176,8.049,6.042z M15.948,5.932l-0.113-0.281
				c-0.336-0.829-0.74-1.556-1.202-2.162l-0.584-0.767l0.884,0.386c0.841,0.368,1.623,0.867,2.323,1.483l0.213,0.188l-0.213,0.188
				c-0.332,0.292-0.687,0.562-1.054,0.8L15.948,5.932z M15.574,3.994c0.219,0.367,0.421,0.763,0.604,1.186
				c0.18-0.126,0.356-0.26,0.526-0.4C16.348,4.486,15.97,4.224,15.574,3.994z M6.719,5.932L6.465,5.768
				c-0.369-0.239-0.724-0.508-1.055-0.8L5.198,4.78l0.213-0.188c0.699-0.616,1.48-1.115,2.323-1.483l0.884-0.387L8.033,3.489
				c-0.461,0.605-0.865,1.333-1.2,2.162L6.719,5.932z M5.961,4.78c0.17,0.14,0.347,0.274,0.527,0.4
				c0.184-0.423,0.385-0.819,0.604-1.186C6.696,4.224,6.318,4.486,5.961,4.78z"/>
		</g>
	</g>
</g>
</svg>
