<svg width="18" height="18" viewBox="0 0 18 18" fill="none" xmlns="http://www.w3.org/2000/svg">
<path d="M9.00809 15.2362L12.5061 9.39572L9.00809 15.2362ZM9.00809 15.2362L5.41862 9.45177L9.00809 15.2362ZM4.79492 7.27344C4.79492 8.04478 5.01386 8.798 5.41849 9.45156L4.79492 7.27344ZM4.79492 7.27344C4.79492 4.98836 6.66024 3.12305 8.94531 3.12305M4.79492 7.27344L8.94531 3.12305M8.94531 3.12305C11.2302 3.12305 13.0928 4.98815 13.0928 7.27344M8.94531 3.12305L13.0928 7.27344M13.0928 7.27344C13.0928 8.02242 12.8881 8.7564 12.5062 9.39551L13.0928 7.27344ZM4.2465 10.1781L4.24663 10.1783L8.43271 16.9241C8.43271 16.9241 8.43271 16.9241 8.43271 16.9241C8.55852 17.1268 8.78015 17.25 9.01853 17.25H9.01854H9.01855H9.01857H9.01857H9.01859H9.0186H9.01861H9.01862H9.01863H9.01864H9.01866H9.01866H9.01868H9.01869H9.0187H9.01871H9.01872H9.01873H9.01874H9.01875H9.01876H9.01877H9.01879H9.01879H9.01881H9.01881H9.01883H9.01883H9.01885H9.01885H9.01887H9.01887H9.01889H9.0189H9.01891H9.01892H9.01894H9.01895H9.01896H9.01897H9.01898H9.01899H9.019H9.01901H9.01902H9.01903H9.01904H9.01905H9.01906H9.01907H9.01909H9.0191H9.01911H9.01912H9.01913H9.01914H9.01915H9.01916H9.01918H9.01919H9.0192H9.01921H9.01922H9.01924H9.01924H9.01926H9.01927H9.01928H9.01929H9.0193H9.01932H9.01933H9.01934H9.01935H9.01937H9.01938H9.01939H9.01941H9.01941H9.01943H9.01944H9.01945H9.01947H9.01948H9.0195H9.01951H9.01952H9.01954H9.01955H9.01956H9.01958H9.01959H9.0196H9.01962H9.01963H9.01964H9.01966H9.01967H9.01969H9.0197H9.01971H9.01973H9.01974H9.01975H9.01977H9.01978H9.01979H9.01981H9.01982H9.01983H9.01984H9.01986H9.01987H9.01988H9.0199H9.01991H9.01992H9.01994H9.01994H9.01996H9.01997H9.01998H9.02H9.02H9.02002H9.02003H9.02004H9.02006H9.02007H9.02009H9.02009H9.02011H9.02012H9.02013H9.02015H9.02015H9.02017H9.02018H9.02019H9.02021H9.02021H9.02023H9.02024H9.02026H9.02027H9.02028H9.02029H9.0203H9.02032H9.02033H9.02034H9.02036H9.02036H9.02038H9.02039H9.0204H9.02042H9.02042H9.02044H9.02045H9.02047H9.02048H9.02049H9.0205H9.02051H9.02053H9.02054H9.02055H9.02057H9.02057H9.02059H9.0206H9.02061H9.02063H9.02064H9.02065H9.02066H9.02068H9.02069H9.0207H9.02072H9.02073H9.02074H9.02075H9.02076H9.02078H9.02079H9.0208H9.02082H9.02083H9.02085H9.02086H9.02087H9.02089H9.0209H9.02091H9.02093H9.02094H9.02095H9.02097H9.02098H9.021H9.02101H9.02102H9.02104H9.02105H9.02106H9.02108H9.02109H9.0211H9.02112H9.02113H9.02114H9.02115H9.02116H9.02118H9.02119H9.02121H9.02122H9.02123H9.02124H9.02125H9.02127H9.02127H9.02129H9.0213H9.02131H9.02132H9.02134H9.02135H9.02136H9.02137H9.02138H9.0214H9.02141H9.02142H9.02143H9.02144H9.02145H9.02146H9.02147H9.02149H9.0215H9.02151H9.02152H9.02153H9.02154H9.02155H9.02156H9.02157H9.02158H9.02159H9.0216H9.02161H9.02162H9.02164H9.02165H9.02166H9.02167H9.02168H9.02169H9.0217H9.02171H9.02172H9.02173H9.02174H9.02175H9.02177H9.02177H9.02179H9.02179H9.02181H9.02182H9.02183H9.02184H9.02185H9.02186H9.02187H9.02188H9.0219H9.0219H9.02192H9.02193H9.02194H9.02195H9.02196H9.02197H9.02198H9.02199H9.02201L9.02201 17V17.25L9.02397 17.25C9.26439 17.2481 9.48651 17.1211 9.61004 16.9148L13.6894 10.1037L13.6895 10.1034C14.1994 9.25026 14.4688 8.27165 14.4688 7.27344C14.4688 4.22759 11.9912 1.75 8.94531 1.75C5.89947 1.75 3.42188 4.22759 3.42188 7.27344C3.42188 8.30216 3.70687 9.30654 4.2465 10.1781Z" fill="#083A9B" stroke="#083A9B" stroke-width="0.5"/>
<path d="M8.94531 4.38672C7.35335 4.38672 6.05859 5.68148 6.05859 7.27344C6.05859 8.85434 7.33235 10.1602 8.94531 10.1602C10.5785 10.1602 11.832 8.83635 11.832 7.27344C11.832 5.68148 10.5373 4.38672 8.94531 4.38672ZM8.94531 8.78711C8.1093 8.78711 7.43164 8.1073 7.43164 7.27344C7.43164 6.44225 8.11413 5.75977 8.94531 5.75977C9.77596 5.75977 10.4561 6.44171 10.4561 7.27344C10.4561 8.09641 9.7935 8.78711 8.94531 8.78711Z" fill="#083A9B" stroke="#083A9B" stroke-width="0.5"/>
</svg>
