<svg fill="#083A9B" version="1.1" id="Layer_1" xmlns="http://www.w3.org/2000/svg" xmlns:xlink="http://www.w3.org/1999/xlink" x="0px" y="0px"
	 width="24px" height="24px" viewBox="0 0 24 24" enable-background="new 0 0 24 24" xml:space="preserve">
<path d="M6,19c-0.256,0-0.512-0.098-0.707-0.293c-0.391-0.391-0.391-1.023,0-1.414l12-12
	c0.391-0.391,1.023-0.391,1.414,0s0.391,1.023,0,1.414l-12,12C6.512,18.902,6.256,19,6,19z"/>
<path d="M18,19c-0.256,0-0.512-0.098-0.707-0.293l-12-12c-0.391-0.391-0.391-1.023,0-1.414s1.023-0.391,1.414,0
	l12,12c0.391,0.391,0.391,1.023,0,1.414C18.512,18.902,18.256,19,18,19z"/>
</svg>
