<svg fill="#083A9B" version="1.1" id="Layer_1" xmlns="http://www.w3.org/2000/svg" xmlns:xlink="http://www.w3.org/1999/xlink" x="0px" y="0px"
	 width="24px" height="24px" viewBox="0 0 24 24" enable-background="new 0 0 24 24" xml:space="preserve">
<path d="M13.5,5.5c1.1,0,2-0.9,2-2s-0.9-2-2-2c-1.1,0-2,0.9-2,2S12.4,5.5,13.5,5.5z M9.8,8.9L7,23h2.1l1.8-8l2.1,2v6
	h2v-7.5l-2.1-2l0.6-3C14.8,12,16.8,13,19,13v-2c-1.9,0-3.5-1-4.3-2.4l-1-1.6c-0.4-0.6-1-1-1.7-1c-0.3,0-0.5,0.1-0.8,0.1L6,8.3V13h2
	V9.6L9.8,8.9z"/>
</svg>
