<svg fill="#FFFFFF" version="1.1" id="Layer_1" xmlns="http://www.w3.org/2000/svg" xmlns:xlink="http://www.w3.org/1999/xlink" x="0px" y="0px"
	 width="18px" height="18px" viewBox="0 0 18 18" enable-background="new 0 0 18 18" xml:space="preserve">
<g>
	<defs>
		<rect id="SVGID_1_" width="18" height="18"/>
	</defs>
	<clipPath id="SVGID_2_">
		<use xlink:href="#SVGID_1_"  overflow="visible"/>
	</clipPath>
	<g clip-path="url(#SVGID_2_)">
		<path d="M17.296,14.484c0.388,0,0.703-0.314,0.703-0.703v-0.734c0-1.669-1.358-3.027-3.027-3.027h-0.433
			c0.078-0.22,0.121-0.456,0.121-0.703V6.75c0.388,0,0.703-0.315,0.703-0.703V3.586c0-0.388-0.315-0.703-0.703-0.703h-0.746
			c0.233-0.595,0.196-1.289-0.162-1.875c-0.295-0.48-0.758-0.818-1.307-0.95c-0.547-0.131-1.113-0.042-1.594,0.252
			c-0.252,0.154-0.656,0.5-1.268,1.722C9.582,2.036,9.581,2.038,9.58,2.041C9.578,2.038,9.577,2.036,9.576,2.033
			C8.964,0.811,8.56,0.465,8.308,0.311C7.828,0.017,7.261-0.072,6.713,0.06C6.166,0.191,5.702,0.528,5.408,1.009
			c-0.359,0.586-0.396,1.28-0.163,1.875H4.5c-0.389,0-0.703,0.315-0.703,0.703v2.461c0,0.388,0.314,0.703,0.703,0.703v2.566
			c0,0.129,0.012,0.256,0.035,0.379L3.577,8.821c-0.401-0.389-0.929-0.6-1.487-0.594c-0.563,0.005-1.091,0.23-1.485,0.632
			S-0.005,9.793,0,10.356s0.229,1.091,0.632,1.485c0.005,0.005,0.01,0.01,0.015,0.014l3.581,3.315
			c0.933,0.902,2.016,1.606,3.219,2.094C8.653,17.752,9.924,18,11.225,18h6.071c0.388,0,0.703-0.314,0.703-0.703
			s-0.315-0.703-0.703-0.703h-6.071c-2.261,0-4.401-0.866-6.025-2.438c-0.003-0.003-0.007-0.007-0.011-0.011l-3.578-3.313
			c-0.13-0.131-0.203-0.305-0.205-0.489c-0.002-0.188,0.07-0.364,0.201-0.499C1.739,9.71,1.915,9.635,2.103,9.633h0.007
			c0.186,0,0.36,0.072,0.492,0.201C2.608,9.84,2.614,9.846,2.62,9.852l4.058,3.709c0.386,0.416,0.937,0.678,1.548,0.678h3.516
			c0.388,0,0.703-0.314,0.703-0.703s-0.315-0.703-0.703-0.703H8.226c-0.145,0-0.28-0.044-0.392-0.119
			c-0.004-0.005-0.008-0.01-0.012-0.014l-0.143-0.13c-0.097-0.12-0.156-0.273-0.156-0.44c0-0.388,0.315-0.703,0.703-0.703h6.746
			c0.894,0,1.621,0.728,1.621,1.621v0.734C16.593,14.17,16.908,14.484,17.296,14.484z M13.254,9.317
			c0,0.388-0.316,0.703-0.703,0.703h-2.285V6.75h2.988V9.317z M13.957,5.344h-3.691V4.29h3.691V5.344z M10.838,2.668
			c0.491-0.983,0.738-1.151,0.748-1.157c0.16-0.098,0.349-0.128,0.531-0.084c0.182,0.044,0.337,0.156,0.436,0.317
			c0.098,0.16,0.127,0.349,0.084,0.531c-0.045,0.183-0.156,0.337-0.316,0.435c-0.011,0.006-0.273,0.148-1.373,0.135
			c-0.065-0.001-0.131-0.002-0.193-0.004C10.781,2.784,10.809,2.726,10.838,2.668z M6.607,1.743C6.705,1.583,6.86,1.47,7.042,1.426
			c0.055-0.013,0.11-0.02,0.166-0.02c0.128,0,0.254,0.035,0.365,0.103c0.01,0.007,0.257,0.175,0.748,1.158
			C8.35,2.726,8.378,2.784,8.406,2.84C8.342,2.842,8.277,2.843,8.212,2.844C7.112,2.858,6.85,2.715,6.84,2.71
			C6.68,2.612,6.567,2.457,6.523,2.274S6.509,1.903,6.607,1.743z M5.203,4.29h3.656v1.055H5.203V4.29z M8.859,6.75v3.269h-2.25
			c-0.388,0-0.703-0.314-0.703-0.703V6.75H8.859z"/>
	</g>
</g>
</svg>
