<svg fill="#083A9B" version="1.1" id="Layer_1" xmlns="http://www.w3.org/2000/svg" xmlns:xlink="http://www.w3.org/1999/xlink" x="0px" y="0px"
	 width="24px" height="24px" viewBox="0 0 24 24" enable-background="new 0 0 24 24" xml:space="preserve">
<path d="M12,21c-7.531,0-11.72-8.203-11.895-8.553c-0.141-0.282-0.141-0.613,0-0.895C0.28,11.204,4.469,3,12,3
	s11.72,8.204,11.895,8.553c0.141,0.282,0.141,0.613,0,0.895C23.72,12.797,19.531,21,12,21z M2.142,11.999
	C3.079,13.607,6.623,19,12,19c5.394,0,8.924-5.389,9.858-6.999C20.921,10.393,17.377,5,12,5C6.606,5,3.076,10.389,2.142,11.999z"/>
<path d="M12,16c-2.206,0-4-1.794-4-4c0-2.206,1.794-4,4-4c2.206,0,4,1.794,4,4C16,14.206,14.206,16,12,16z M12,10
	c-1.103,0-2,0.897-2,2c0,1.103,0.897,2,2,2c1.103,0,2-0.897,2-2C14,10.897,13.103,10,12,10z"/>
</svg>
