<svg fill="#FFFFFF" version="1.1" id="Layer_1" xmlns="http://www.w3.org/2000/svg" xmlns:xlink="http://www.w3.org/1999/xlink" x="0px" y="0px"
	 width="18px" height="18px" viewBox="0 0 18 18" enable-background="new 0 0 18 18" xml:space="preserve">
<path d="M0.75,16.484c0,0.421,0.337,0.758,0.757,0.758h9.743c0.42,0,0.758-0.337,0.758-0.758V15.75H0.75V16.484z
	 M6.375,6.743c-2.813,0-5.625,1.507-5.625,4.507H12C12,8.25,9.188,6.743,6.375,6.743z M2.715,9.75
	c0.833-1.163,2.603-1.507,3.66-1.507s2.828,0.345,3.66,1.507H2.715z M0.75,12.75H12v1.5H0.75V12.75z M13.5,3.75v-3H12v3H8.25
	l0.172,1.5h7.169l-1.049,10.5H13.5v1.5h1.29c0.63,0,1.147-0.487,1.223-1.103L17.25,3.75H13.5z"/>
</svg>
