<svg fill="#083A9B" version="1.1" id="Layer_1" xmlns="http://www.w3.org/2000/svg" xmlns:xlink="http://www.w3.org/1999/xlink" x="0px" y="0px"
	 width="18px" height="18px" viewBox="0 0 18 18" enable-background="new 0 0 18 18" xml:space="preserve">
<path d="M15,16.75c-0.553,0-1-0.447-1-1v-1.5c0-0.526-0.214-1.042-0.586-1.414S12.526,12.25,12,12.25H6
	c-0.526,0-1.042,0.214-1.414,0.586S4,13.724,4,14.25v1.5c0,0.553-0.448,1-1,1s-1-0.447-1-1v-1.5c0-1.054,0.427-2.084,1.172-2.828
	C3.927,10.666,4.932,10.25,6,10.25h6c1.053,0,2.084,0.427,2.828,1.172C15.573,12.166,16,13.197,16,14.25v1.5
	C16,16.303,15.553,16.75,15,16.75z"/>
<path d="M9,9.25c-2.206,0-4-1.794-4-4s1.794-4,4-4c2.206,0,4,1.794,4,4S11.206,9.25,9,9.25z M9,3.25
	c-1.103,0-2,0.897-2,2s0.897,2,2,2c1.103,0,2-0.897,2-2S10.103,3.25,9,3.25z"/>
</svg>
